<svg xmlns="http://www.w3.org/2000/svg" xmlns:xlink="http://www.w3.org/1999/xlink" width="3648" zoomAndPan="magnify" viewBox="0 0 2736 2088.000016" height="2784" preserveAspectRatio="xMidYMid meet" version="1.2"><defs><clipPath id="d2b88347f1"><path d="M 0.65625 0 L 2735.34375 0 L 2735.34375 2087 L 0.65625 2087 Z M 0.65625 0 "/></clipPath><clipPath id="21d3d1dc9d"><path d="M 551.339844 467 L 2184.808594 467 L 2184.808594 1620 L 551.339844 1620 Z M 551.339844 467 "/></clipPath></defs><g id="dd86b94efd"><g clip-rule="nonzero" clip-path="url(#d2b88347f1)"><path style=" stroke:none;fill-rule:nonzero;fill:#ffffff;fill-opacity:1;" d="M 0.65625 0 L 2735.34375 0 L 2735.34375 2087 L 0.65625 2087 Z M 0.65625 0 "/><path style=" stroke:none;fill-rule:nonzero;fill:#ffffff;fill-opacity:1;" d="M 0.65625 0 L 2735.34375 0 L 2735.34375 2087 L 0.65625 2087 Z M 0.65625 0 "/></g><g clip-rule="nonzero" clip-path="url(#21d3d1dc9d)"><path style=" stroke:none;fill-rule:nonzero;fill:#e88d02;fill-opacity:1;" d="M 2125.539062 1617.679688 C 2113.742188 1613.390625 1769.933594 1471.320312 1386.433594 1471.320312 C 1002.929688 1471.320312 644.515625 1613.601562 591.539062 1617.679688 C 538.566406 1621.761719 553.1875 1617.679688 553.1875 1617.679688 C 617.546875 1580.660156 684.1875 1548.34375 753.109375 1520.726562 C 860.292969 1478.601562 981.9375 1449.183594 981.9375 1449.183594 L 981.9375 1265.195312 L 1318.355469 960.648438 L 1318.355469 1415.875 L 1407.222656 1415.875 L 1407.222656 760.792969 L 1746.808594 1063.753906 L 1746.808594 1449.195312 C 1746.808594 1449.195312 1861.566406 1478.613281 1971.070312 1520.738281 C 2080.570312 1562.859375 2184.808594 1617.691406 2184.808594 1617.691406 C 2184.808594 1617.691406 2163.710938 1619.597656 2146.152344 1619.597656 C 2139.191406 1619.921875 2132.320312 1619.28125 2125.539062 1617.679688 Z M 981.941406 955.890625 L 1323.117188 667.210938 L 1323.117188 859.136719 L 981.941406 1160.507812 Z M 1413.570312 651.347656 L 1413.570312 467.351562 L 1750 765.550781 L 1750 954.300781 Z M 1413.570312 651.347656 "/></g></g></svg>